HIERARCHY
ROOT root
{
	OFFSET 0.000000 0.000000 0.000000
	CHANNELS 6 Xposition Yposition Zposition Zrotation Yrotation Xrotation
	JOINT lhip
	{
		OFFSET 0.058581 -0.082280 -0.017664
		CHANNELS 3 Zrotation Yrotation Xrotation
		JOINT lknee
		{
			OFFSET 0.043451 -0.386469 0.008037
			CHANNELS 3 Zrotation Yrotation Xrotation
			JOINT lankle
			{
				OFFSET -0.014790 -0.426874 -0.037428
				CHANNELS 3 Zrotation Yrotation Xrotation
				JOINT ltoe
				{
					OFFSET 0.041054 -0.060286 0.122042
					CHANNELS 3 Zrotation Yrotation Xrotation
					End Site
					{
						OFFSET 0.000000 0.000000 0.000000
					}
				}
			}
		}
	}
	JOINT rhip
	{
		OFFSET -0.060310 -0.090513 -0.013543
		CHANNELS 3 Zrotation Yrotation Xrotation
		JOINT rknee
		{
			OFFSET -0.043257 -0.383688 -0.004843
			CHANNELS 3 Zrotation Yrotation Xrotation
			JOINT rankle
			{
				OFFSET 0.019056 -0.420046 -0.034562
				CHANNELS 3 Zrotation Yrotation Xrotation
				JOINT rtoe
				{
					OFFSET -0.034840 -0.062106 0.130323
					CHANNELS 3 Zrotation Yrotation Xrotation
					End Site
					{
						OFFSET 0.000000 0.000000 0.000000
					}
				}
			}
		}
	}
	JOINT lowerback
	{
		OFFSET 0.004439 0.124404 -0.038385
		CHANNELS 3 Zrotation Yrotation Xrotation
		JOINT upperback
		{
			OFFSET 0.004488 0.137956 0.026820
			CHANNELS 3 Zrotation Yrotation Xrotation
			JOINT chest
			{
				OFFSET -0.002265 0.056032 0.002855
				CHANNELS 3 Zrotation Yrotation Xrotation
				JOINT lowerneck
				{
					OFFSET -0.013390 0.211636 -0.033468
					CHANNELS 3 Zrotation Yrotation Xrotation
					JOINT upperneck
					{
						OFFSET 0.010113 0.088937 0.050410
						CHANNELS 3 Zrotation Yrotation Xrotation
						End Site
						{
							OFFSET 0.000000 0.000000 0.000000
						}
					}
				}
				JOINT lclavicle
				{
					OFFSET 0.071702 0.114000 -0.018898
					CHANNELS 3 Zrotation Yrotation Xrotation
					JOINT lshoulder
					{
						OFFSET 0.122921 0.045205 -0.019046
						CHANNELS 3 Zrotation Yrotation Xrotation
						JOINT lelbow
						{
							OFFSET 0.255332 -0.015649 -0.022946
							CHANNELS 3 Zrotation Yrotation Xrotation
							JOINT lwrist
							{
								OFFSET 0.265709 0.012698 -0.007375
								CHANNELS 3 Zrotation Yrotation Xrotation
								End Site
								{
									OFFSET 0.000000 0.000000 0.000000
								}
							}
						}
					}
				}
				JOINT rclavicle
				{
					OFFSET -0.082954 0.112472 -0.023707
					CHANNELS 3 Zrotation Yrotation Xrotation
					JOINT rshoulder
					{
						OFFSET -0.113228 0.046853 -0.008472
						CHANNELS 3 Zrotation Yrotation Xrotation
						JOINT relbow
						{
							OFFSET -0.260127 -0.014369 -0.031269
							CHANNELS 3 Zrotation Yrotation Xrotation
							JOINT rwrist
							{
								OFFSET -0.269108 0.006794 -0.006027
								CHANNELS 3 Zrotation Yrotation Xrotation
								End Site
								{
									OFFSET 0.000000 0.000000 0.000000
								}
							}
						}
					}
				}
			}
		}
	}
}
MOTION
Frames: 10
Frame Time: 0.033333
2.340287 0.689611 0.979991 -86.154680 -0.871052 84.972030 0.377217 -3.662339 -4.715483 -5.028414 -9.239037 18.600804 2.314480 10.586099 -15.367209 0.000000 -0.000000 0.000000 1.330472 -1.934370 -3.894271 -2.216536 -3.350187 18.752648 -0.904538 -13.311295 -15.802034 0.000000 -0.000000 0.000000 -1.308088 3.423422 8.729577 0.276071 -1.159965 3.954809 -1.392097 1.182093 -1.667669 0.494961 0.493575 -7.125216 2.248950 -4.020752 3.242936 -28.558411 -5.305339 -0.491902 -50.345693 -6.180842 12.853142 5.692708 -24.906452 0.983784 -3.129896 -8.221306 3.004896 29.310703 9.866719 3.471295 51.933826 2.190411 13.813583 -11.194823 28.455912 -1.233200 0.587079 8.410360 2.832114 
2.339557 0.689922 0.978514 -86.790314 -0.912823 85.243599 0.380631 -3.602684 -5.496730 -5.253293 -8.868764 19.797258 2.593141 11.152111 -15.977683 0.000000 -0.000000 0.000000 1.302510 -1.497409 -4.894539 -2.032144 -3.062184 20.176771 -0.929122 -13.516361 -16.559073 0.000000 -0.000000 0.000000 -1.549085 3.398471 9.077286 0.452461 -1.167129 3.981406 -1.335444 1.317020 -1.619135 0.583420 -0.486032 -7.790470 2.284672 -5.015286 2.384796 -27.758188 -5.043655 -0.827885 -50.769405 -5.968054 12.922898 5.798087 -25.598213 -0.187958 -4.294172 -6.114963 2.589998 28.866805 10.091190 2.988450 51.833456 1.990692 14.064128 -11.667632 29.223083 -1.621647 1.777856 7.751173 2.435263 
2.337762 0.690501 0.976864 -87.205322 -0.747287 85.562250 0.708769 -3.479904 -6.268683 -5.533240 -8.440870 21.045377 2.689938 11.199929 -16.805374 0.000000 -0.000000 0.000000 1.387518 -1.579985 -5.755663 -1.786172 -2.873300 21.411078 -0.841576 -13.391088 -17.273333 0.000000 -0.000000 0.000000 -1.493258 3.453064 9.219019 0.642493 -1.345447 4.127639 -1.279180 1.261137 -1.621898 0.628316 -0.798896 -8.170931 2.345133 -5.638294 1.352768 -27.390702 -4.958031 -0.689835 -50.815433 -5.568274 12.887200 5.668630 -25.448708 0.185033 -3.596656 -6.771430 2.540770 28.470680 10.393702 2.805664 51.838068 1.903192 13.845929 -11.780876 28.982294 -1.674116 1.043237 7.769402 2.088794 
2.335388 0.690934 0.973977 -87.809167 -0.652941 86.185644 0.825796 -3.428548 -7.757224 -5.799472 -8.186723 23.148927 3.077488 11.898053 -18.194810 0.000000 -0.000000 0.000000 1.506643 -1.455389 -7.495755 -1.648778 -2.469629 23.711250 -0.960380 -13.551088 -18.334661 0.000000 -0.000000 0.000000 -1.436147 3.476547 9.667470 0.824350 -1.667838 4.057990 -1.288636 1.243415 -1.832071 0.571674 -1.079328 -9.311254 2.427637 -5.782378 0.061269 -27.259088 -4.796062 -0.726590 -50.505045 -4.480821 13.311677 5.201874 -25.343232 0.802215 -2.953076 -7.316667 2.785878 28.532207 10.619982 2.681226 51.226347 1.808350 13.549938 -11.448769 29.051787 -1.908338 0.240402 7.992417 1.972614 
2.333550 0.690701 0.971754 -87.998098 -0.587772 86.443953 1.042259 -3.390023 -8.682352 -6.276926 -7.898445 24.675024 3.140940 11.964988 -19.005076 0.000000 -0.000000 0.000000 1.432366 -1.399093 -8.420599 -1.279211 -2.452043 25.201056 -1.101807 -13.544190 -19.174358 0.000000 -0.000000 0.000000 -1.463019 3.463522 10.081281 0.947475 -1.891974 4.023244 -1.214668 1.229810 -1.890046 0.674948 -0.940743 -9.983956 2.458163 -5.939342 -0.883398 -26.771100 -4.661520 -0.914943 -50.842302 -3.854201 13.572673 4.670321 -25.872269 1.341721 -3.645933 -6.647010 2.760856 28.473245 10.605353 2.423087 50.976767 1.740032 13.576088 -10.999959 29.457574 -1.435321 1.660031 7.677048 1.831603 
2.331004 0.691152 0.967886 -88.572035 -0.677336 86.729371 1.090057 -3.284237 -9.737329 -6.792661 -7.559468 26.647792 3.381130 12.511334 -20.195592 0.000000 -0.000000 0.000000 1.374487 -1.139987 -9.725823 -1.211371 -2.286249 27.477886 -1.138146 -13.835580 -20.559241 0.000000 -0.000000 0.000000 -1.664471 3.416616 11.010351 0.971922 -1.793317 3.712877 -1.117496 1.161562 -1.928069 0.809723 -0.837690 -11.122918 2.449898 -5.795439 -1.970404 -26.701937 -4.775317 -0.770226 -50.814300 -3.074756 13.823262 3.903580 -26.034948 2.375724 -2.819594 -6.415763 2.886092 28.499049 10.762241 2.366035 50.919396 1.524835 13.430840 -10.746593 29.349330 -1.096116 0.678686 7.789138 1.968199 
2.328543 0.691997 0.963203 -89.014167 -0.720504 87.151453 1.178527 -3.518758 -11.262716 -7.165722 -6.951635 29.162915 3.593486 12.970642 -21.357605 0.000000 -0.000000 0.000000 1.402377 -0.916086 -11.206401 -1.152876 -2.142469 29.775679 -1.434677 -14.109745 -21.627883 0.000000 -0.000000 0.000000 -1.750789 3.536495 11.939959 1.019771 -1.925564 3.521738 -1.087303 1.084723 -2.079720 0.706311 -0.662893 -12.445604 2.602015 -5.620905 -2.963401 -26.809382 -4.949147 -0.684112 -50.846259 -2.529872 13.736708 3.550630 -25.842010 2.502170 -4.068362 -6.253810 2.881061 28.830388 11.112049 2.372375 50.745001 1.339646 13.403203 -10.482303 29.510957 -0.573504 1.551995 8.092466 2.274236 
2.325786 0.692499 0.958042 -89.481289 -0.578982 87.435200 1.353077 -3.565171 -12.638482 -7.533108 -6.570752 31.797128 3.947238 13.532674 -22.503131 0.000000 -0.000000 0.000000 1.559536 -0.515300 -12.488928 -1.034054 -2.097206 32.064244 -1.819774 -14.293625 -22.838739 0.000000 -0.000000 0.000000 -1.551933 3.534950 13.465124 0.952076 -1.826778 2.924738 -1.015495 1.071271 -2.341688 0.732705 -0.746421 -13.514599 2.641981 -5.298978 -4.145562 -27.224429 -5.241967 -0.556666 -51.291183 -2.043724 13.860482 3.872642 -25.057818 2.615935 -3.972261 -5.551144 2.735508 28.779862 11.506552 2.588695 51.221939 1.055746 13.405954 -10.465348 28.991196 -0.399938 1.344538 7.621979 1.640700 
2.323613 0.693120 0.949916 -89.850763 -0.086687 88.288455 2.093873 -3.389510 -15.462657 -6.848287 -4.703361 36.024131 3.610795 11.801049 -26.094364 0.000000 -0.000000 0.000000 2.343609 0.987213 -14.881280 -1.965067 -3.027293 35.606121 0.630700 -13.528504 -27.344042 0.000000 -0.000000 0.000000 -1.114010 2.538189 15.655252 0.490861 -0.208569 -2.629110 -0.514065 0.932544 1.728521 1.976486 1.830730 -16.647058 -0.162673 -7.923722 -4.334058 -27.820203 -4.024516 1.232055 -51.203337 -5.286573 10.459589 0.580447 -23.517510 12.553827 1.199312 -5.271004 -2.722292 27.966650 9.014235 3.592666 52.328070 4.243119 14.337796 -9.470579 28.994848 4.180466 -2.819753 4.685239 -2.765650 
2.317943 0.692657 0.940436 -90.115258 0.077400 88.730965 2.068193 -3.583940 -17.398894 -6.746771 -4.158644 39.965312 4.144611 12.587323 -28.325098 0.000000 -0.000000 0.000000 2.579811 1.702416 -16.621091 -2.195345 -3.162520 38.984397 0.061847 -13.820781 -28.782321 0.000000 -0.000000 0.000000 -1.005288 2.393477 17.608388 0.323628 -0.119804 -3.654641 -0.322033 0.713217 1.469362 2.043674 1.713777 -17.993180 0.091212 -7.044449 -5.635490 -28.164883 -5.029853 1.828502 -52.469843 -4.898300 10.167796 1.869455 -22.885798 11.751930 4.019139 -5.292396 -2.890783 27.500543 10.089538 4.044693 53.597954 4.198030 14.305796 -9.919730 27.799342 4.503365 -5.457467 5.162200 -2.180213 
